<svg width="128" height="128" viewBox="0 0 128 128" fill="none" xmlns="http://www.w3.org/2000/svg">
<path d="M33.8702 29.8907L26.098 27.9476C25.6104 27.8257 25.1547 28.2367 25.2257 28.7342L26.5796 38.2112C26.7551 39.4394 27.2033 40.6128 27.8915 41.645C29.3445 43.8245 32.1255 44.6883 34.5576 43.7154L38.7859 42.0241C39.0546 41.9166 39.2307 41.6564 39.2307 41.367V36.7563C39.2307 33.5089 37.0206 30.6783 33.8702 29.8907Z" fill="white"/>
<path d="M37.4087 22.8137L29.6364 20.8707C29.1488 20.7488 28.6931 21.1598 28.7642 21.6573L30.1181 31.1343C30.2935 32.3625 30.7418 33.5358 31.43 34.5681C32.883 36.7476 35.664 37.6113 38.096 36.6385L42.3243 34.9472C42.593 34.8397 42.7692 34.5795 42.7692 34.2901V29.6793C42.7692 26.432 40.5591 23.6013 37.4087 22.8137Z" fill="white"/>
<path d="M48.264 23.521L41.7279 20.9066C41.3385 20.7508 40.8998 20.9659 40.7846 21.3692L38.2692 30.1731C37.7568 31.9665 38.0578 33.8944 39.0924 35.4462C40.2042 37.1139 42.3321 37.7748 44.1931 37.0305L49.7561 34.8053C49.8158 34.7814 49.8717 34.7488 49.9219 34.7086C53.8379 31.5758 52.9203 25.3835 48.264 23.521Z" fill="white"/>
<path d="M60.375 18.2586L57.0737 10.959C56.8666 10.501 56.2614 10.3989 55.9155 10.7635L49.3259 17.7078C48.4719 18.6078 47.8303 19.6876 47.4482 20.8679C46.6414 23.36 47.6906 26.0765 49.963 27.3793L53.9138 29.6444C54.1648 29.7884 54.4782 29.765 54.7051 29.5853L58.3199 26.7232C60.8658 24.7073 61.7131 21.2175 60.375 18.2586Z" fill="white"/>
<path d="M85.1442 21.7971L81.8429 14.4974C81.6358 14.0395 81.0307 13.9373 80.6847 14.3019L74.0951 21.2463C73.2411 22.1462 72.5995 23.226 72.2174 24.4064C71.4107 26.8984 72.4598 29.6149 74.7322 30.9178L78.683 33.1829C78.934 33.3268 79.2474 33.3034 79.4743 33.1238L83.0891 30.2616C85.6351 28.2458 86.4824 24.7559 85.1442 21.7971Z" fill="white"/>
<path d="M28.9801 41.7775L21.5789 38.7106C21.1146 38.5182 20.6033 38.8576 20.6003 39.3601L20.5431 48.9332C20.5357 50.1738 20.8062 51.4004 21.3348 52.5228C22.4508 54.8926 25.0742 56.1566 27.6231 55.5527L32.0544 54.5028C32.336 54.4361 32.5486 54.2047 32.5913 53.9185L33.2706 49.358C33.749 46.1461 31.98 43.0207 28.9801 41.7775Z" fill="white"/>
<path d="M74.3038 25.5894L72.2962 18.8422C72.1766 18.4402 71.7356 18.2298 71.3479 18.3898L62.8842 21.8828C61.1601 22.5943 59.8355 24.027 59.261 25.8015C58.6437 27.7084 59.4465 29.787 61.1853 30.7839L66.3832 33.764C66.4389 33.796 66.4991 33.8196 66.5618 33.834C71.4488 34.9595 75.734 30.3961 74.3038 25.5894Z" fill="white"/>
<path d="M83.6763 54.4899C83.0838 52.43 82.2514 50.61 81.1791 49.0298C80.1068 47.4214 78.7947 46.067 77.2428 44.9665C75.719 43.8378 73.9696 42.9772 71.9943 42.3846C70.0473 41.792 67.8887 41.4958 65.5184 41.4958C61.0883 41.4958 57.1943 42.5962 53.8364 44.7972C50.5068 46.9982 47.9108 50.2008 46.0484 54.4052C44.1861 58.5814 43.2549 63.6887 43.2549 69.7273C43.2549 75.7658 44.172 80.9014 46.0061 85.134C47.8402 89.3666 50.4362 92.5975 53.7941 94.8266C57.152 97.0276 61.1165 98.1281 65.6877 98.1281C69.8357 98.1281 73.377 97.3944 76.3116 95.9271C79.2744 94.4316 81.5318 92.3294 83.0838 89.6205C84.6639 86.9117 85.454 83.709 85.454 80.0125L89.1787 80.5627H66.8306V66.7644H103.104V77.6846C103.104 85.3033 101.496 91.8497 98.2788 97.3239C95.0621 102.77 90.6319 106.974 84.9884 109.937C79.345 112.872 72.8832 114.339 65.6031 114.339C57.4765 114.339 50.3375 112.547 44.1861 108.964C38.0347 105.352 33.2377 100.23 29.7952 93.5992C26.3809 86.9399 24.6738 79.039 24.6738 69.8966C24.6738 62.8704 25.6896 56.6062 27.7212 51.1038C29.7811 45.5732 32.6593 40.8891 36.3558 37.0515C40.0522 33.214 44.3554 30.2935 49.2652 28.29C54.1751 26.2866 59.494 25.2849 65.2222 25.2849C70.132 25.2849 74.7032 26.0044 78.9358 27.4435C83.1684 28.8544 86.9213 30.8578 90.1946 33.4538C93.496 36.0498 96.1908 39.1396 98.2788 42.7232C100.367 46.2786 101.707 50.2008 102.3 54.4899H83.6763Z" fill="white"/>
</svg>
