<svg width="91" height="33" viewBox="0 0 91 33" fill="none" xmlns="http://www.w3.org/2000/svg">
<path d="M37.485 5.62127L35.2885 5.07214C35.1507 5.03769 35.0219 5.15384 35.042 5.29445L35.4246 7.97274C35.4742 8.31984 35.6009 8.65143 35.7954 8.94316C36.206 9.5591 36.9919 9.8032 37.6793 9.52827L38.8742 9.05029C38.9501 9.01992 38.9999 8.94637 38.9999 8.86459V7.56155C38.9999 6.64382 38.3753 5.84385 37.485 5.62127Z" fill="#25870A"/>
<path d="M38.485 3.62127L36.2885 3.07214C36.1507 3.03769 36.0219 3.15384 36.042 3.29445L36.4246 5.97274C36.4742 6.31984 36.6009 6.65143 36.7954 6.94316C37.206 7.5591 37.9919 7.8032 38.6793 7.52827L39.8742 7.05029C39.9501 7.01992 39.9999 6.94637 39.9999 6.86459V5.56155C39.9999 4.64382 39.3753 3.84385 38.485 3.62127Z" fill="#25870A"/>
<path d="M41.5528 3.82115L39.7057 3.08229C39.5956 3.03827 39.4716 3.09907 39.4391 3.21304L38.7282 5.70109C38.5834 6.20791 38.6684 6.75276 38.9608 7.19133C39.275 7.66263 39.8764 7.84941 40.4023 7.63905L41.9745 7.01018C41.9914 7.00343 42.0072 6.99423 42.0213 6.98288C43.128 6.09752 42.8687 4.34751 41.5528 3.82115Z" fill="#25870A"/>
<path d="M44.9755 2.33396L44.0425 0.271015C43.984 0.141597 43.813 0.11273 43.7152 0.215763L41.8529 2.1783C41.6116 2.43264 41.4302 2.7378 41.3222 3.07138C41.0943 3.77565 41.3908 4.54336 42.033 4.91155L43.1495 5.55169C43.2204 5.59237 43.309 5.58575 43.3731 5.53499L44.3947 4.72611C45.1142 4.15642 45.3536 3.17015 44.9755 2.33396Z" fill="#25870A"/>
<path d="M51.9755 3.33396L51.0425 1.27101C50.984 1.1416 50.813 1.11273 50.7152 1.21576L48.8529 3.1783C48.6116 3.43264 48.4302 3.7378 48.3222 4.07138C48.0943 4.77565 48.3908 5.54336 49.033 5.91155L50.1495 6.55169C50.2204 6.59237 50.309 6.58575 50.3731 6.53499L51.3947 5.72611C52.1142 5.15642 52.3536 4.17015 51.9755 3.33396Z" fill="#25870A"/>
<path d="M36.103 8.98061L34.0114 8.11387C33.8801 8.05949 33.7356 8.1554 33.7348 8.29744L33.7186 11.0029C33.7165 11.3535 33.793 11.7001 33.9424 12.0173C34.2578 12.687 34.9992 13.0443 35.7195 12.8736L36.9718 12.5769C37.0514 12.558 37.1115 12.4926 37.1235 12.4117L37.3155 11.1229C37.4507 10.2152 36.9508 9.33194 36.103 8.98061Z" fill="#25870A"/>
<path d="M48.9119 4.4057L48.3445 2.49887C48.3107 2.38526 48.1861 2.32581 48.0765 2.37103L45.6846 3.35818C45.1974 3.55927 44.823 3.96416 44.6607 4.46564C44.4862 5.00454 44.7131 5.59197 45.2045 5.8737L46.6734 6.71591C46.6892 6.72495 46.7062 6.73161 46.7239 6.73569C48.1051 7.05375 49.3161 5.76411 48.9119 4.4057Z" fill="#25870A"/>
<path d="M51.5606 12.4211C51.3932 11.8389 51.1579 11.3246 50.8549 10.878C50.5519 10.4234 50.1811 10.0407 49.7425 9.72966C49.3118 9.41068 48.8174 9.16746 48.2592 9C47.709 8.83254 47.0989 8.7488 46.4291 8.7488C45.1771 8.7488 44.0766 9.05981 43.1276 9.68182C42.1866 10.3038 41.453 11.2089 40.9267 12.3971C40.4004 13.5774 40.1372 15.0207 40.1372 16.7273C40.1372 18.4338 40.3964 19.8852 40.9147 21.0813C41.4331 22.2775 42.1667 23.1906 43.1157 23.8206C44.0646 24.4426 45.185 24.7536 46.4769 24.7536C47.6492 24.7536 48.65 24.5463 49.4793 24.1316C50.3166 23.7089 50.9546 23.1148 51.3932 22.3493C51.8398 21.5837 52.063 20.6786 52.063 19.634L53.1157 19.7895H46.7999V15.89H57.0511V18.9761C57.0511 21.1292 56.5965 22.9793 55.6874 24.5263C54.7783 26.0654 53.5264 27.2536 51.9315 28.0909C50.3366 28.9203 48.5104 29.3349 46.453 29.3349C44.1563 29.3349 42.1388 28.8285 40.4004 27.8158C38.6619 26.7951 37.3063 25.3477 36.3334 23.4737C35.3685 21.5917 34.886 19.3589 34.886 16.7751C34.886 14.7895 35.1731 13.0191 35.7472 11.4641C36.3294 9.90112 37.1428 8.57735 38.1874 7.49282C39.2321 6.40829 40.4482 5.58293 41.8358 5.01674C43.2233 4.45056 44.7265 4.16746 46.3453 4.16746C47.7329 4.16746 49.0248 4.37081 50.2209 4.77751C51.4171 5.17623 52.4777 5.74242 53.4028 6.47608C54.3358 7.20973 55.0973 8.08293 55.6874 9.09569C56.2776 10.1005 56.6563 11.2089 56.8238 12.4211H51.5606Z" fill="#835103"/>
<path d="M45.7248 29.2106L40.1215 27.0534L42.2218 27.1976L60.2187 26.323L70.4632 15.4201L75.5409 13.5144L79.2971 9.69598L79.225 10.7461L71.1529 20.743L66.1288 25.1215C65.777 25.4282 66.1112 25.9944 66.5497 25.8345L72.7617 23.5693C73.6862 23.2321 74.6626 23.0596 75.6467 23.0596L77.8951 23.0596L79.225 17.5L79.4862 22.7827C79.4931 22.9218 79.6309 23.016 79.763 22.972L87.8283 20.2851C88.0642 20.2065 88.2175 20.5301 88.0072 20.6628L84.2109 23.0596L76.2913 27.0534C74.6493 27.8814 72.8464 28.341 71.0084 28.3999L45.7248 29.2106Z" fill="#835103"/>
<path d="M47.3685 29.2106L52.9719 27.0534L50.8716 27.1976L32.8747 26.3229L22.6301 15.4201L19.2947 12.3685L20.348 15.7895C20.4128 16.0002 20.1513 16.1563 19.9967 15.9991L13.7963 9.6959L13.8684 10.7461L21.9405 20.743L26.9645 25.1214C27.3164 25.4281 26.9821 25.9943 26.5436 25.8344L20.6774 23.6952C19.529 23.2765 18.4856 22.6128 17.6196 21.7502L11.0063 15.163L6.37305 9.15043L9.48516 14.4353C9.59891 14.6285 9.37214 14.842 9.18619 14.7168L-5.51294e-06 8.53286L10.1003 17.3354L15.6654 23.9782C17.9746 26.7347 21.3492 28.3762 24.9433 28.4915L47.3685 29.2106Z" fill="#835103"/>
<path d="M27.4999 30.5L31.4999 27.5L32.4999 28.5L27.4999 30.5Z" fill="#835103"/>
<path d="M34.5943 32.6713L39.036 26.6189L40.7511 27.9591L34.5943 32.6713Z" fill="#835103"/>
<path d="M59.0366 32.3427L63.4783 26.2903L65.1934 27.6305L59.0366 32.3427Z" fill="#835103"/>
<path d="M62.9 32.5889L62.5042 25.092L64.6803 25.0429L62.9 32.5889Z" fill="#835103"/>
<path d="M1.99994 16L5.99994 13L6.99994 14L1.99994 16Z" fill="#835103"/>
<path d="M82.6296 27.649L78.368 25.034L78.9297 23.7361L82.6296 27.649Z" fill="#835103"/>
<path d="M43.7753 32.3772L45.2243 27.5918L46.6222 27.8061L43.7753 32.3772Z" fill="#835103"/>
<path d="M45.4163 32.4403L44.5567 30.1022L44.9999 30L45.4163 32.4403Z" fill="#835103"/>
<path d="M50.9999 32.3507L52.2011 29.751L52.5721 30.0348L50.9999 32.3507Z" fill="#835103"/>
<path d="M65.1117 32.2003L63.0645 30.7809L63.3685 30.4425L65.1117 32.2003Z" fill="#835103"/>
<path d="M46.9741 31.3499L44.524 26.9914L45.6463 26.131L46.9741 31.3499Z" fill="#835103"/>
<path d="M52.9741 31.3499L50.524 26.9914L51.6463 26.131L52.9741 31.3499Z" fill="#835103"/>
<path d="M77.2935 21.5376L72.9941 24.0901L72.4999 23L77.2935 21.5376Z" fill="#835103"/>
<path d="M76.3593 20.1192L75.4153 22.4245L75.0193 22.2007L76.3593 20.1192Z" fill="#835103"/>
<path d="M73.8293 20L72.6948 24.8696L71.286 24.7467L73.8293 20Z" fill="#835103"/>
</svg>
